<svg width="256" height="256" viewBox="0 0 256 256" fill="none" xmlns="http://www.w3.org/2000/svg">
  <rect x="8" y="8" width="240" height="240" rx="18" fill="white" stroke="#D61F26" stroke-width="6"/>
  <path d="M128 42C102 42 74 64 58 90L68 182C88 210 110 224 128 224C146 224 168 210 188 182L198 90C182 64 154 42 128 42Z" fill="#070707"/>
  <circle cx="128" cy="118" r="40" fill="#C5161D"/>
  <circle cx="128" cy="118" r="28" fill="#2E2778"/>
  <path d="M91 112C73 105 59 107 44 121C58 120 72 124 86 134L91 112Z" fill="#5A2CA0"/>
  <path d="M165 112C183 105 197 107 212 121C198 120 184 124 170 134L165 112Z" fill="#5A2CA0"/>
  <path d="M92 113L86 136C100 140 112 142 128 142C144 142 156 140 170 136L164 113C152 118 141 120 128 120C115 120 104 118 92 113Z" fill="#8E69CC"/>
  <path d="M108 80L118 66H138L148 80L140 94H116L108 80Z" fill="#F6C948"/>
  <circle cx="128" cy="112" r="17" fill="#F1E9FF" opacity="0.16"/>
  <text x="128" y="128" text-anchor="middle" font-size="28" font-family="Arial, sans-serif" font-weight="700" fill="white">AP</text>
  <path d="M82 167C95 158 110 154 128 154C146 154 161 158 174 167" stroke="white" stroke-width="3" stroke-linecap="round"/>
  <text x="128" y="195" text-anchor="middle" font-size="18" font-family="Arial, sans-serif" font-weight="700" letter-spacing="6" fill="white">POLICE</text>
</svg>
